<?xml version="1.0" standalone="no"?><!DOCTYPE svg PUBLIC "-//W3C//DTD SVG 1.1//EN" "http://www.w3.org/Graphics/SVG/1.1/DTD/svg11.dtd"><svg t="1736582394974" class="icon" viewBox="0 0 1024 1024" version="1.1" xmlns="http://www.w3.org/2000/svg" p-id="45941" xmlns:xlink="http://www.w3.org/1999/xlink" width="256" height="256"><path d="M47.4 62.48m315.06 0l269.88 0q315.06 0 315.06 315.06l0 269.88q0 315.06-315.06 315.06l-269.88 0q-315.06 0-315.06-315.06l0-269.88q0-315.06 315.06-315.06Z" fill="#B2CCDF" p-id="45942"></path><path d="M798.16 483.36a15.41 15.41 0 0 0-15.16-12.7h-44.61a15.41 15.41 0 0 0-13.95 8.89V400a38.53 38.53 0 0 0-38.53-38.53H503.13a15.41 15.41 0 0 0 10.69-14.67v-34.91a15.41 15.41 0 0 0-15.41-15.41H488a15.41 15.41 0 0 0-15.41 15.41v34.89a15.41 15.41 0 0 0 10.69 14.67h-58.2a15.41 15.41 0 0 0 10.69-14.67v-34.89a15.41 15.41 0 0 0-15.41-15.41h-71.51a15.42 15.42 0 0 0-15.42 15.41v34.89a15.41 15.41 0 0 0 10.69 14.67H308A38.53 38.53 0 0 0 269.44 400v394.85A38.53 38.53 0 0 0 308 833.38h377.91a38.53 38.53 0 0 0 38.53-38.53V673.52a15.4 15.4 0 0 0 13.95 8.89H783a15.4 15.4 0 0 0 15.16-12.7v8.56l158.24 87.39V390l-158.24 87.4zM252.43 719.89a15.42 15.42 0 0 0 15.42-15.42V448.6a15.42 15.42 0 0 0-15.42-15.42h-9.77a113.43 113.43 0 0 0-113.43 113.44v59.84a113.43 113.43 0 0 0 113.43 113.43z" fill="#606060" p-id="45943"></path><path d="M668.98 425.66m15.42 0l44.6 0q15.42 0 15.42 15.42l0 180.91q0 15.42-15.42 15.42l-44.6 0q-15.42 0-15.42-15.42l0-180.91q0-15.42 15.42-15.42Z" fill="#F8E9AC" p-id="45944"></path><path d="M902.4 720.66l-158.24-87.39V432.35l158.24-87.4v375.71z" fill="#F0B9A0" p-id="45945"></path><path d="M215.44 316.45m38.53 0l377.94 0q38.53 0 38.53 38.53l0 394.87q0 38.53-38.53 38.53l-377.94 0q-38.53 0-38.53-38.53l0-394.87q0-38.53 38.53-38.53Z" fill="#68BCAC" p-id="45946"></path><path d="M279.43 251.48m15.42 0l71.54 0q15.42 0 15.42 15.42l0 34.88q0 15.42-15.42 15.42l-71.54 0q-15.42 0-15.42-15.42l0-34.88q0-15.42 15.42-15.42Z" fill="#FFFFFF" p-id="45947"></path><path d="M418.63 251.48m15.42 0l10.35 0q15.42 0 15.42 15.42l0 34.88q0 15.42-15.42 15.42l-10.35 0q-15.42 0-15.42-15.42l0-34.88q0-15.42 15.42-15.42Z" fill="#FFFFFF" p-id="45948"></path><path d="M188.66 388.18h9.77a15.42 15.42 0 0 1 15.42 15.42v255.87a15.42 15.42 0 0 1-15.42 15.42h-9.77A113.43 113.43 0 0 1 75.23 561.46v-59.84a113.43 113.43 0 0 1 113.43-113.44z" fill="#68BCAC" p-id="45949"></path><path d="M177.31 459.64h36.43v132.13h-36.43a38.62 38.62 0 0 1-38.61-38.62v-54.9a38.61 38.61 0 0 1 38.61-38.61z" fill="#F8E9AC" p-id="45950"></path><path d="M264.24 471.45a96.26 96.26 0 1 0 96.26-96.26 96.26 96.26 0 0 0-96.26 96.26z m130.92 0a34.66 34.66 0 1 1-34.66-34.66 34.65 34.65 0 0 1 34.66 34.66z" fill="#D8F1B1" p-id="45951"></path><path d="M729 633.66h-39.9c-3.72 0-7.43 0.33-10.77-1.71-5.73-3.51-5.6-9.22-5.6-15V447.59c0-3.92-0.53-8.47 1.38-12 4.65-8.65 18-6.15 26.18-6.15 9.35 0 18.78-0.33 28.13 0 8.3 0.3 12.25 6.34 12.25 13.94v144.13c0 11.4 0.53 23 0 34.34-0.31 6.61-5 11.52-11.67 11.81-4.81 0.2-4.83 7.71 0 7.5 11.41-0.49 19.07-9.18 19.17-20.37V447.59c0-5 0.36-10-1.85-14.69-5.3-11.2-16.38-11-26.87-11h-32.86c-11.54 0-21 7.14-21.36 19.29-0.13 3.82 0 7.66 0 11.49v132.8c0 12.12-0.47 24.34 0 36.46 0.47 12.45 10.16 19.21 21.85 19.21H729c4.83 0.01 4.84-7.49 0-7.49z" fill="#FFFFFF" p-id="45952"></path><path d="M904.29 717.43L850.93 688l-85.17-47-19.7-11 1.85 3.24V432.35l-1.85 3.23 53.36-29.47 85.17-47 19.7-10.88-5.64-3.23v360.17c0 4.9-0.36 10 0 14.86v0.63c0 4.83 7.5 4.84 7.5 0V360.44c0-4.89 0.42-10 0-14.86v-0.63a3.78 3.78 0 0 0-5.64-3.24l-53.36 29.47L762 418.23l-19.7 10.88a3.75 3.75 0 0 0-1.86 3.24v200.92a3.74 3.74 0 0 0 1.86 3.23l53.34 29.5 85.17 47 19.7 10.88c4.23 2.36 8.02-4.12 3.78-6.45zM631.91 784.63H255.65c-18.7 0-35.36-13.27-36.39-32.71-0.76-14.5-0.06-29.2-0.06-43.71V362.93c0-7.87-0.2-15.42 3.33-22.83 6.58-13.83 20.11-19.9 34.72-19.9h365.87c7.12 0 14.13-0.35 21 2.18 15.17 5.63 22.6 20 22.6 35.44v336.76c0 18 0.08 36.09 0 54.14-0.08 19.63-14.88 35.56-34.78 35.91-4.82 0.09-4.83 7.59 0 7.5a42.86 42.86 0 0 0 42.28-42.61c0.07-5.17 0-10.34 0-15.51V357.54c0-15.66-6.51-30.18-20.2-38.62-8.85-5.45-18.44-6.22-28.41-6.22H257c-15 0-28.77 5.48-37.69 18.05-6.38 9-7.65 19.19-7.65 29.77v378.74c0 5.3-0.29 10.77 0.39 16 2.75 21.35 21.29 36.7 42.53 36.83 18.29 0.11 36.6 0 54.89 0h322.44c4.83 0.04 4.84-7.46 0-7.46z" fill="#FFFFFF" p-id="45953"></path><path d="M366.4 313.45h-53.88c-6.35 0-13.49 0.93-19.78-0.21-12.44-2.25-9.56-18.31-9.56-27.42v-15.67c0-5.21 0.66-10.18 5.61-13.21 5.47-3.35 15.13-1.71 21.18-1.71 18.68 0 37.61-0.94 56.26 0 14.68 0.74 11.83 17.46 11.83 27.63s3.57 29.94-11.66 30.59c-4.81 0.2-4.84 7.71 0 7.5 8.59-0.37 16.31-5.71 18.53-14.28 1.07-4.11 0.63-8.73 0.63-12.93v-19.23c0-4.3 0.42-8.94-0.81-13.12-2.43-8.23-10-13.34-18.35-13.66-2.35-0.09-4.72 0-7.07 0h-36.6c-9.13 0-18.3-0.24-27.43 0-6.48 0.17-12.45 2.84-16.19 8.28-3.14 4.55-3.43 9.49-3.43 14.77 0 10.3-0.38 20.68 0 31 0.31 8.19 5.13 15.52 13.06 18.2 3.22 1.08 6.53 1 9.87 1h67.79c4.82 0.02 4.83-7.53 0-7.53zM444.41 313.45c-4.5 0-10.2 0.89-14.48-0.73-5.76-2.18-7.55-7.49-7.55-13.08V269c0-6 2.3-11.8 8.77-13.45 4-1 9.15-0.57 13.26-0.36 14.27 0.74 11.66 16.76 11.66 26.65 0 10.34 3.8 30.91-11.66 31.57-4.81 0.2-4.84 7.71 0 7.5 10-0.43 18.32-7.61 19.11-17.84 0.36-4.74 0.05-9.62 0.05-14.37 0-11.89 3.2-29.1-7.77-37.22-6.11-4.54-13.6-3.88-20.8-3.79-8.54 0.1-16.29 4.67-19.12 13-1.66 4.92-1 10.8-1 15.9v21.31c0 7.49 1.28 14.45 7.77 19.26s14.28 3.84 21.76 3.84c4.82 0 4.83-7.55 0-7.55zM188.66 391.93c5 0 11.4-1 15.83 1.71 3.84 2.35 5.45 6.2 5.61 10.52 0.13 3.62 0 7.26 0 10.87v240.29c0 5.66-0.29 11.26-6.14 14.43-4.34 2.36-10.53 1.41-15.3 1.39a111.78 111.78 0 0 1-26.33-3.14 110.65 110.65 0 0 1-75.21-64.88C77.68 580 79 555.9 79 531.54c0-24.94-1.31-49.58 8.79-73.1a110.81 110.81 0 0 1 74.56-63.33 112.31 112.31 0 0 1 26.33-3.18c4.83 0 4.84-7.53 0-7.5a118.31 118.31 0 0 0-93.07 46 116.6 116.6 0 0 0-21.84 48.13c-2.2 11.13-2.27 22.26-2.27 33.52v37.25c0 10.88-0.08 21.66 1.78 32.44 6 35.07 28.74 66.22 60.09 83a117.64 117.64 0 0 0 51.79 13.79c5.46 0.17 11.54 0.73 16.92-0.3a19.24 19.24 0 0 0 15.31-16.18c1.36-9.94 0.23-20.67 0.23-30.66v-210.5c0-12.93 2.58-30.21-13.06-35.48-5-1.68-10.73-1-15.88-1-4.84-0.01-4.85 7.49-0.02 7.49z" fill="#FFFFFF" p-id="45954"></path><path d="M177.31 463.39h36.43l-3.74-3.75v132.13l3.75-3.75h-32c-5.69 0-11.21-0.17-16.65-2.18a35.25 35.25 0 0 1-19.88-19c-4.27-9.95-2.78-22.29-2.78-32.87v-34.34c0.06-19.8 14.7-35.94 34.86-36.29 4.82-0.09 4.84-7.59 0-7.5-20.84 0.36-39 15.51-41.91 36.4-1.59 11.35-0.45 23.48-0.45 34.9s-1.4 23.9 1 35.07c4.17 19.51 21.88 33 41.52 33.26 12.09 0.18 24.19 0 36.28 0a3.8 3.8 0 0 0 3.75-3.75V459.64a3.8 3.8 0 0 0-3.75-3.75h-36.43c-4.82 0-4.83 7.5 0 7.5zM260.49 471.45c0.3 41.64 26.43 79.39 65.57 93.9 39.34 14.58 85.24 2 111.74-30.47s30.1-79.47 8.16-115.42c-21.85-35.78-64.64-54.29-105.69-46-46.15 9.36-79.44 51.19-79.78 98 0 4.82 7.47 4.83 7.5 0 0.28-38.59 24.7-74.17 61.32-87.13a93.53 93.53 0 0 1 102.35 28c25.11 30 28.15 74.05 7.82 107.34-20 32.79-59.51 50.17-97.21 42.53-42.93-8.71-74-47.1-74.28-90.72 0.01-4.86-7.53-4.87-7.5-0.03z" fill="#FFFFFF" p-id="45955"></path><path d="M391.41 471.45c-0.26 12.93-8.17 24.82-20.58 29.14a31.25 31.25 0 0 1-33.94-9.2c-18.5-21.68 1.52-55.74 29.44-50.31a31.31 31.31 0 0 1 25.08 30.37c0.09 4.82 7.6 4.83 7.5 0a38.41 38.41 0 1 0-31.26 37.72c18.17-3.26 30.9-19.6 31.26-37.72 0.09-4.83-7.41-4.83-7.5 0z" fill="#FFFFFF" p-id="45956"></path></svg>